<svg width="271" height="71" viewBox="0 0 271 71" fill="none" xmlns="http://www.w3.org/2000/svg">
<path d="M23.6657 20.9627L26.0193 34.7466C27.7304 35.5095 29.3719 36.4077 30.9316 37.4265L26.5743 20.3445C29.8542 18.8257 31.8623 13.934 30.767 8.78121C29.5531 3.06951 24.9866 -0.798852 20.5667 0.140566C16.147 1.07998 13.5488 6.47139 14.7625 12.1831C15.8578 17.336 19.6825 20.9874 23.6657 20.9627Z" fill="#F6921E"/>
<path d="M11.3254 49.0602C22.9266 60.2092 39.9963 64.1148 44.3685 64.8164C41.3714 44.1175 21.4345 29.5451 0.226129 33.8861C-2.62343 58.5457 21.9786 76.9727 44.6786 67.7879C44.6778 67.7702 44.676 67.7531 44.6749 67.7356C20.5909 64.797 11.3254 49.0602 11.3254 49.0602Z" fill="#00CA44"/>
<path d="M38.9429 21.2457L34.8859 37.1509C36.4249 36.1742 38.0236 35.3229 39.6757 34.6053L41.8511 21.8643C45.4649 21.8102 48.1818 17.9232 49.2774 12.7701C49.6358 11.0836 50.4657 6.5259 49.8673 3.66795C49.8204 3.44092 49.6206 3.27811 49.3883 3.27811C49.1564 3.27779 48.9568 3.43963 48.9078 3.66634L46.6699 14.1978C46.6215 14.4267 46.4834 14.6273 46.287 14.754C46.091 14.8819 45.8518 14.9261 45.6225 14.8777L45.5719 14.8667C45.0951 14.7654 44.7907 14.2965 44.8914 13.8197L47.1194 3.34007C47.23 2.82164 46.8992 2.31256 46.3808 2.20235L46.3633 2.1988C46.1143 2.14587 45.8547 2.19396 45.6413 2.33257C45.4278 2.47101 45.2787 2.68884 45.2258 2.93749L42.9977 13.4171C42.9485 13.6464 42.8115 13.8463 42.6149 13.9741C42.4188 14.1021 42.1797 14.1463 41.9504 14.0976L41.9004 14.0866C41.4235 13.9851 41.1186 13.5164 41.2204 13.0395L43.4473 2.55975C43.5002 2.31094 43.4518 2.05116 43.3137 1.83801C43.1748 1.62453 42.9569 1.47495 42.7086 1.4217C42.1803 1.30988 41.6619 1.64664 41.5499 2.17443L39.3264 12.6366C39.2775 12.8659 39.1399 13.0665 38.9435 13.1936C38.7468 13.3211 38.5075 13.3653 38.279 13.3169L38.2284 13.3059C37.7516 13.2049 37.4472 12.7357 37.5484 12.2586L39.7966 1.68262C39.8436 1.46301 39.7345 1.23986 39.5331 1.14094C39.3319 1.04203 39.0881 1.09238 38.9429 1.26358C37.0698 3.47578 35.8921 7.94164 35.4887 9.83904C34.3936 14.9921 35.2938 19.6484 38.9429 21.2457Z" fill="#F6921E"/>
<path d="M64.7751 33.8861C62.3617 33.392 59.8626 33.1324 57.3032 33.1324C48.6917 33.1324 40.7725 36.0779 34.4807 41.0056C37.664 43.9307 40.3654 47.3749 42.4606 51.2026C47.4125 48.3956 55.0906 43.659 57.7937 39.7948C54.4084 45.9602 50.3958 48.7846 43.6064 53.4719C45.5027 57.536 46.7388 61.9739 47.1543 66.6586C57.7383 61.3011 65 50.3315 65 37.6568C64.9999 36.3802 64.9181 35.1238 64.7751 33.8861Z" fill="#00CA44"/>
<path d="M99.75 22.94C101.97 22.94 103.91 23.38 105.57 24.26C107.23 25.14 108.51 26.38 109.41 27.98C110.33 29.56 110.79 31.39 110.79 33.47C110.79 35.53 110.33 37.36 109.41 38.96C108.51 40.56 107.22 41.8 105.54 42.68C103.88 43.56 101.95 44 99.75 44H91.86V22.94H99.75ZM99.42 39.56C101.36 39.56 102.87 39.03 103.95 37.97C105.03 36.91 105.57 35.41 105.57 33.47C105.57 31.53 105.03 30.02 103.95 28.94C102.87 27.86 101.36 27.32 99.42 27.32H96.99V39.56H99.42ZM118.787 27.05V31.31H125.657V35.27H118.787V39.89H126.557V44H113.657V22.94H126.557V27.05H118.787ZM137.507 44.21C135.967 44.21 134.587 43.96 133.367 43.46C132.147 42.96 131.167 42.22 130.427 41.24C129.707 40.26 129.327 39.08 129.287 37.7H134.747C134.827 38.48 135.097 39.08 135.557 39.5C136.017 39.9 136.617 40.1 137.357 40.1C138.117 40.1 138.717 39.93 139.157 39.59C139.597 39.23 139.817 38.74 139.817 38.12C139.817 37.6 139.637 37.17 139.277 36.83C138.937 36.49 138.507 36.21 137.987 35.99C137.487 35.77 136.767 35.52 135.827 35.24C134.467 34.82 133.357 34.4 132.497 33.98C131.637 33.56 130.897 32.94 130.277 32.12C129.657 31.3 129.347 30.23 129.347 28.91C129.347 26.95 130.057 25.42 131.477 24.32C132.897 23.2 134.747 22.64 137.027 22.64C139.347 22.64 141.217 23.2 142.637 24.32C144.057 25.42 144.817 26.96 144.917 28.94H139.367C139.327 28.26 139.077 27.73 138.617 27.35C138.157 26.95 137.567 26.75 136.847 26.75C136.227 26.75 135.727 26.92 135.347 27.26C134.967 27.58 134.777 28.05 134.777 28.67C134.777 29.35 135.097 29.88 135.737 30.26C136.377 30.64 137.377 31.05 138.737 31.49C140.097 31.95 141.197 32.39 142.037 32.81C142.897 33.23 143.637 33.84 144.257 34.64C144.877 35.44 145.187 36.47 145.187 37.73C145.187 38.93 144.877 40.02 144.257 41C143.657 41.98 142.777 42.76 141.617 43.34C140.457 43.92 139.087 44.21 137.507 44.21ZM166.584 22.94V44H161.454V35.33H153.474V44H148.344V22.94H153.474V31.19H161.454V22.94H166.584ZM175.418 22.94V44H170.288V22.94H175.418Z" fill="#00CA44"/>
<path d="M209.343 22.94V44H204.213V31.37L199.503 44H195.363L190.623 31.34V44H185.493V22.94H191.553L197.463 37.52L203.313 22.94H209.343ZM226.142 40.28H218.282L217.022 44H211.652L219.272 22.94H225.212L232.832 44H227.402L226.142 40.28ZM224.822 36.32L222.212 28.61L219.632 36.32H224.822ZM245.891 44L241.511 36.05H240.281V44H235.151V22.94H243.761C245.421 22.94 246.831 23.23 247.991 23.81C249.171 24.39 250.051 25.19 250.631 26.21C251.211 27.21 251.501 28.33 251.501 29.57C251.501 30.97 251.101 32.22 250.301 33.32C249.521 34.42 248.361 35.2 246.821 35.66L251.681 44H245.891ZM240.281 32.42H243.461C244.401 32.42 245.101 32.19 245.561 31.73C246.041 31.27 246.281 30.62 246.281 29.78C246.281 28.98 246.041 28.35 245.561 27.89C245.101 27.43 244.401 27.2 243.461 27.2H240.281V32.42ZM269.871 22.94V27.05H264.291V44H259.161V27.05H253.581V22.94H269.871Z" fill="#F6921E"/>
<path d="M95.822 55.939C96.81 55.939 97.6637 56.1253 98.383 56.498C99.111 56.862 99.6657 57.3863 100.047 58.071C100.437 58.7557 100.632 59.5617 100.632 60.489C100.632 61.4163 100.437 62.2223 100.047 62.907C99.6657 63.583 99.111 64.103 98.383 64.467C97.6637 64.8223 96.81 65 95.822 65H93.001V55.939H95.822ZM95.822 64.025C96.992 64.025 97.8847 63.7173 98.5 63.102C99.1153 62.478 99.423 61.607 99.423 60.489C99.423 59.3623 99.111 58.4827 98.487 57.85C97.8717 57.2173 96.9833 56.901 95.822 56.901H94.184V64.025H95.822ZM108.692 61.165C108.692 61.3903 108.679 61.6287 108.653 61.88H102.959C103.003 62.582 103.241 63.1323 103.674 63.531C104.116 63.921 104.649 64.116 105.273 64.116C105.785 64.116 106.209 63.999 106.547 63.765C106.894 63.5223 107.137 63.2017 107.275 62.803H108.549C108.359 63.4877 107.977 64.0467 107.405 64.48C106.833 64.9047 106.123 65.117 105.273 65.117C104.597 65.117 103.991 64.9653 103.453 64.662C102.925 64.3587 102.509 63.9297 102.205 63.375C101.902 62.8117 101.75 62.1617 101.75 61.425C101.75 60.6883 101.898 60.0427 102.192 59.488C102.487 58.9333 102.899 58.5087 103.427 58.214C103.965 57.9107 104.58 57.759 105.273 57.759C105.949 57.759 106.547 57.9063 107.067 58.201C107.587 58.4957 107.986 58.903 108.263 59.423C108.549 59.9343 108.692 60.515 108.692 61.165ZM107.47 60.918C107.47 60.4673 107.371 60.0817 107.171 59.761C106.972 59.4317 106.699 59.1847 106.352 59.02C106.014 58.8467 105.637 58.76 105.221 58.76C104.623 58.76 104.112 58.9507 103.687 59.332C103.271 59.7133 103.033 60.242 102.972 60.918H107.47ZM112.776 65.117C112.23 65.117 111.74 65.026 111.307 64.844C110.874 64.6533 110.531 64.3933 110.28 64.064C110.029 63.726 109.89 63.3403 109.864 62.907H111.086C111.121 63.2623 111.285 63.5527 111.58 63.778C111.883 64.0033 112.278 64.116 112.763 64.116C113.214 64.116 113.569 64.0163 113.829 63.817C114.089 63.6177 114.219 63.3663 114.219 63.063C114.219 62.751 114.08 62.5213 113.803 62.374C113.526 62.218 113.097 62.0663 112.516 61.919C111.987 61.7803 111.554 61.6417 111.216 61.503C110.887 61.3557 110.601 61.1433 110.358 60.866C110.124 60.58 110.007 60.2073 110.007 59.748C110.007 59.384 110.115 59.0503 110.332 58.747C110.549 58.4437 110.856 58.2053 111.255 58.032C111.654 57.85 112.109 57.759 112.62 57.759C113.409 57.759 114.046 57.9583 114.531 58.357C115.016 58.7557 115.276 59.3017 115.311 59.995H114.128C114.102 59.6223 113.95 59.3233 113.673 59.098C113.404 58.8727 113.04 58.76 112.581 58.76C112.156 58.76 111.818 58.851 111.567 59.033C111.316 59.215 111.19 59.4533 111.19 59.748C111.19 59.982 111.264 60.177 111.411 60.333C111.567 60.4803 111.758 60.6017 111.983 60.697C112.217 60.7837 112.538 60.8833 112.945 60.996C113.456 61.1347 113.872 61.2733 114.193 61.412C114.514 61.542 114.787 61.7413 115.012 62.01C115.246 62.2787 115.367 62.6297 115.376 63.063C115.376 63.453 115.268 63.804 115.051 64.116C114.834 64.428 114.527 64.675 114.128 64.857C113.738 65.0303 113.287 65.117 112.776 65.117ZM120.582 57.746C121.119 57.746 121.605 57.863 122.038 58.097C122.471 58.3223 122.809 58.6647 123.052 59.124C123.303 59.5833 123.429 60.1423 123.429 60.801V65H122.259V60.97C122.259 60.2593 122.081 59.7177 121.726 59.345C121.371 58.9637 120.885 58.773 120.27 58.773C119.646 58.773 119.148 58.968 118.775 59.358C118.411 59.748 118.229 60.3157 118.229 61.061V65H117.046V55.38H118.229V58.89C118.463 58.526 118.784 58.2443 119.191 58.045C119.607 57.8457 120.071 57.746 120.582 57.746ZM132.805 65L130.01 61.854V65H128.827V55.38H130.01V61.035L132.753 57.876H134.404L131.05 61.425L134.417 65H132.805ZM135.076 61.412C135.076 60.684 135.223 60.047 135.518 59.501C135.812 58.9463 136.215 58.5173 136.727 58.214C137.247 57.9107 137.823 57.759 138.456 57.759C139.08 57.759 139.621 57.8933 140.081 58.162C140.54 58.4307 140.882 58.7687 141.108 59.176V57.876H142.304V65H141.108V63.674C140.874 64.09 140.523 64.4367 140.055 64.714C139.595 64.9827 139.058 65.117 138.443 65.117C137.81 65.117 137.238 64.961 136.727 64.649C136.215 64.337 135.812 63.8993 135.518 63.336C135.223 62.7727 135.076 62.1313 135.076 61.412ZM141.108 61.425C141.108 60.8877 140.999 60.4197 140.783 60.021C140.566 59.6223 140.271 59.319 139.899 59.111C139.535 58.8943 139.132 58.786 138.69 58.786C138.248 58.786 137.845 58.89 137.481 59.098C137.117 59.306 136.826 59.6093 136.61 60.008C136.393 60.4067 136.285 60.8747 136.285 61.412C136.285 61.958 136.393 62.4347 136.61 62.842C136.826 63.2407 137.117 63.5483 137.481 63.765C137.845 63.973 138.248 64.077 138.69 64.077C139.132 64.077 139.535 63.973 139.899 63.765C140.271 63.5483 140.566 63.2407 140.783 62.842C140.999 62.4347 141.108 61.9623 141.108 61.425ZM156.336 57.746C156.89 57.746 157.384 57.863 157.818 58.097C158.251 58.3223 158.593 58.6647 158.845 59.124C159.096 59.5833 159.222 60.1423 159.222 60.801V65H158.052V60.97C158.052 60.2593 157.874 59.7177 157.519 59.345C157.172 58.9637 156.7 58.773 156.102 58.773C155.486 58.773 154.997 58.9723 154.633 59.371C154.269 59.761 154.087 60.3287 154.087 61.074V65H152.917V60.97C152.917 60.2593 152.739 59.7177 152.384 59.345C152.037 58.9637 151.565 58.773 150.967 58.773C150.351 58.773 149.862 58.9723 149.498 59.371C149.134 59.761 148.952 60.3287 148.952 61.074V65H147.769V57.876H148.952V58.903C149.186 58.5303 149.498 58.2443 149.888 58.045C150.286 57.8457 150.724 57.746 151.201 57.746C151.799 57.746 152.327 57.8803 152.787 58.149C153.246 58.4177 153.588 58.812 153.814 59.332C154.013 58.8293 154.342 58.4393 154.802 58.162C155.261 57.8847 155.772 57.746 156.336 57.746ZM160.72 61.412C160.72 60.684 160.867 60.047 161.162 59.501C161.457 58.9463 161.86 58.5173 162.371 58.214C162.891 57.9107 163.467 57.759 164.1 57.759C164.724 57.759 165.266 57.8933 165.725 58.162C166.184 58.4307 166.527 58.7687 166.752 59.176V57.876H167.948V65H166.752V63.674C166.518 64.09 166.167 64.4367 165.699 64.714C165.24 64.9827 164.702 65.117 164.087 65.117C163.454 65.117 162.882 64.961 162.371 64.649C161.86 64.337 161.457 63.8993 161.162 63.336C160.867 62.7727 160.72 62.1313 160.72 61.412ZM166.752 61.425C166.752 60.8877 166.644 60.4197 166.427 60.021C166.21 59.6223 165.916 59.319 165.543 59.111C165.179 58.8943 164.776 58.786 164.334 58.786C163.892 58.786 163.489 58.89 163.125 59.098C162.761 59.306 162.471 59.6093 162.254 60.008C162.037 60.4067 161.929 60.8747 161.929 61.412C161.929 61.958 162.037 62.4347 162.254 62.842C162.471 63.2407 162.761 63.5483 163.125 63.765C163.489 63.973 163.892 64.077 164.334 64.077C164.776 64.077 165.179 63.973 165.543 63.765C165.916 63.5483 166.21 63.2407 166.427 62.842C166.644 62.4347 166.752 61.9623 166.752 61.425ZM171.13 59.033C171.338 58.6257 171.633 58.3093 172.014 58.084C172.404 57.8587 172.877 57.746 173.431 57.746V58.968H173.119C171.793 58.968 171.13 59.6873 171.13 61.126V65H169.947V57.876H171.13V59.033ZM178.775 65L175.98 61.854V65H174.797V55.38H175.98V61.035L178.723 57.876H180.374L177.02 61.425L180.387 65H178.775ZM187.987 61.165C187.987 61.3903 187.974 61.6287 187.948 61.88H182.254C182.298 62.582 182.536 63.1323 182.969 63.531C183.411 63.921 183.944 64.116 184.568 64.116C185.08 64.116 185.504 63.999 185.842 63.765C186.189 63.5223 186.432 63.2017 186.57 62.803H187.844C187.654 63.4877 187.272 64.0467 186.7 64.48C186.128 64.9047 185.418 65.117 184.568 65.117C183.892 65.117 183.286 64.9653 182.748 64.662C182.22 64.3587 181.804 63.9297 181.5 63.375C181.197 62.8117 181.045 62.1617 181.045 61.425C181.045 60.6883 181.193 60.0427 181.487 59.488C181.782 58.9333 182.194 58.5087 182.722 58.214C183.26 57.9107 183.875 57.759 184.568 57.759C185.244 57.759 185.842 57.9063 186.362 58.201C186.882 58.4957 187.281 58.903 187.558 59.423C187.844 59.9343 187.987 60.515 187.987 61.165ZM186.765 60.918C186.765 60.4673 186.666 60.0817 186.466 59.761C186.267 59.4317 185.994 59.1847 185.647 59.02C185.309 58.8467 184.932 58.76 184.516 58.76C183.918 58.76 183.407 58.9507 182.982 59.332C182.566 59.7133 182.328 60.242 182.267 60.918H186.765ZM190.992 58.851V63.05C190.992 63.3967 191.066 63.6437 191.213 63.791C191.36 63.9297 191.616 63.999 191.98 63.999H192.851V65H191.785C191.126 65 190.632 64.8483 190.303 64.545C189.974 64.2417 189.809 63.7433 189.809 63.05V58.851H188.886V57.876H189.809V56.082H190.992V57.876H192.851V58.851H190.992Z" fill="#868686"/>
</svg>
