<svg width="31" height="31" viewBox="0 0 31 31" fill="none" xmlns="http://www.w3.org/2000/svg">
<path d="M15.5 0.916656C7.47913 0.916656 0.916626 7.47916 0.916626 15.5C0.916626 23.5208 7.47913 30.0833 15.5 30.0833C23.5208 30.0833 30.0833 23.5208 30.0833 15.5C30.0833 7.47916 23.5208 0.916656 15.5 0.916656ZM12 23.0833C11.6791 23.0833 11.2416 22.9667 10.8333 22.7917L10.002 24.8333L8.33954 24.25L8.57288 23.6812C10.3229 19.2771 12.3354 14.2604 19.875 12.5833C19.875 12.5833 11.125 12.5833 8.28121 20.6771C8.28121 20.6771 6.74996 19.1458 6.74996 17.3958C6.74996 15.6458 8.49996 11.9271 12.875 11.0521C14.1145 10.8042 15.5 10.6146 16.8708 10.3958C20.3125 9.92916 23.6229 9.46249 24.25 8.20832C24.25 8.20832 21.625 23.0833 12 23.0833Z" fill="#00CA44"/>
</svg>
