<svg width="25" height="26" viewBox="0 0 25 26" fill="none" xmlns="http://www.w3.org/2000/svg">
<path fill-rule="evenodd" clip-rule="evenodd" d="M12.5628 0.510437H12.4371C11.3508 0.510437 10.4458 0.510437 9.72804 0.607104C8.96921 0.708604 8.28408 0.933354 7.73429 1.48315C7.18329 2.03415 6.95854 2.71927 6.85704 3.4769C6.78817 3.99285 6.76763 5.22414 6.76279 6.28023C4.31954 6.36119 2.85142 6.64635 1.83279 7.66619C0.416626 9.08114 0.416626 11.3601 0.416626 15.9167C0.416626 20.4733 0.416626 22.7522 1.83279 24.1672C3.24775 25.5834 5.52667 25.5834 10.0833 25.5834H14.9166C19.4732 25.5834 21.7522 25.5834 23.1671 24.1672C24.5833 22.7522 24.5833 20.4733 24.5833 15.9167C24.5833 11.3601 24.5833 9.08114 23.1671 7.66619C22.1485 6.64635 20.6804 6.36119 18.2371 6.28144C18.2323 5.22414 18.213 3.99285 18.1429 3.4781C18.0414 2.71927 17.8166 2.03415 17.2656 1.48435C16.7158 0.933354 16.0307 0.708604 15.2719 0.607104C14.5541 0.510437 13.6479 0.510437 12.5628 0.510437ZM16.4246 6.25244C16.4186 5.22898 16.4017 4.12819 16.3473 3.71856C16.2712 3.16152 16.1419 2.92227 15.9848 2.76519C15.8277 2.6081 15.5885 2.47881 15.0302 2.40269C14.4478 2.32535 13.6648 2.32294 12.5 2.32294C11.3351 2.32294 10.5521 2.32535 9.9685 2.4039C9.41146 2.47881 9.17221 2.6081 9.01513 2.7664C8.85804 2.92348 8.72875 3.16152 8.65263 3.71856C8.59825 4.1294 8.58012 5.22898 8.57529 6.25244C9.04775 6.25002 9.55163 6.25002 10.0833 6.25002H14.9166C15.4495 6.25002 15.9522 6.25002 16.4246 6.25244ZM12.5 10.1771C12.7403 10.1771 12.9708 10.2726 13.1408 10.4425C13.3107 10.6125 13.4062 10.843 13.4062 11.0834V11.0954C14.7221 11.4265 15.8229 12.4645 15.8229 13.9024C15.8229 14.1427 15.7274 14.3733 15.5574 14.5432C15.3875 14.7132 15.157 14.8086 14.9166 14.8086C14.6763 14.8086 14.4458 14.7132 14.2758 14.5432C14.1059 14.3733 14.0104 14.1427 14.0104 13.9024C14.0104 13.4384 13.4956 12.7956 12.5 12.7956C11.5043 12.7956 10.9895 13.4384 10.9895 13.9024C10.9895 14.3664 11.5043 15.0104 12.5 15.0104C14.1735 15.0104 15.8229 16.1704 15.8229 17.931C15.8229 19.3689 14.7221 20.4056 13.4062 20.7379V20.75C13.4062 20.9904 13.3107 21.2209 13.1408 21.3908C12.9708 21.5608 12.7403 21.6563 12.5 21.6563C12.2596 21.6563 12.0291 21.5608 11.8591 21.3908C11.6892 21.2209 11.5937 20.9904 11.5937 20.75V20.7379C10.2778 20.4069 9.17704 19.3689 9.17704 17.931C9.17704 17.6906 9.27252 17.4601 9.44248 17.2902C9.61243 17.1202 9.84294 17.0247 10.0833 17.0247C10.3236 17.0247 10.5542 17.1202 10.7241 17.2902C10.8941 17.4601 10.9895 17.6906 10.9895 17.931C10.9895 18.395 11.5043 19.0378 12.5 19.0378C13.4956 19.0378 14.0104 18.395 14.0104 17.931C14.0104 17.467 13.4956 16.8229 12.5 16.8229C10.8264 16.8229 9.17704 15.6629 9.17704 13.9024C9.17704 12.4645 10.2778 11.4265 11.5937 11.0954V11.0834C11.5937 10.843 11.6892 10.6125 11.8591 10.4425C12.0291 10.2726 12.2596 10.1771 12.5 10.1771Z" fill="#00CA44"/>
</svg>
