<svg width="35" height="35" viewBox="0 0 35 35" fill="none" xmlns="http://www.w3.org/2000/svg">
<path d="M32.7496 18.9711C32.7496 18.9711 33.2172 15.4028 32.3668 13.7895C31.5164 12.1762 28.8914 8.61333 23.4473 7.97075C20.5598 7.63169 18.6047 8.0145 16.8219 8.22505C15.6926 8.35904 13.5899 7.6645 9.8137 8.5231C7.0137 9.16021 2.76448 11.6239 1.38362 16.934C0.656279 19.7313 0.932451 22.7528 2.17112 25.2985C4.55003 30.1821 8.96604 31.3715 8.96604 31.3715L17.8418 32.0934L28.5879 27.5489L32.7496 18.9711Z" fill="#FF2A23"/>
<path d="M22.4301 32.5609C28.0793 31.4562 32.9629 26.4031 33.8133 21.0519C34.609 16.0453 31.6832 12.6902 31.6832 12.6902C31.6832 12.6902 32.0168 15.3617 31.3933 18.2082C30.7234 21.2542 28.7847 26.332 22.6433 29.2085C15.1047 32.7386 6.84686 30.4117 6.84686 30.4117C6.84686 30.4117 12.4578 34.5105 22.4301 32.5609Z" fill="#DC0D27"/>
<path d="M6.81407 14.4266C5.3129 14.0383 3.43985 15.173 3.16915 18.4953C2.92032 21.5387 4.56915 25.2055 6.18516 24.768C7.55782 24.3961 6.23712 21.8531 6.72657 19.7668C7.22149 17.6805 9.10274 15.0199 6.81407 14.4266Z" fill="#FED3B0"/>
<path d="M8.71448 12.5918C8.5012 12.8679 8.99612 14.082 11.509 14.0656C14.0192 14.0492 14.4403 13.2918 15.5586 13.6308C16.677 13.9699 17.5492 15.3152 18.7852 16.0508C20.5133 17.0789 23.0071 16.8164 22.9907 16.3597C22.9742 15.9004 22.3645 16.1355 21.8395 15.4929C21.3145 14.8476 20.3848 13.1441 20.3848 13.1441C20.3848 13.1441 20.6446 12.3457 21.1942 12.3758C22.4629 12.4441 23.8739 12.1926 24.6504 11.7058C25.5801 11.1261 25.9301 10.232 25.7606 10.0269C25.591 9.82458 25.0633 10.3715 24.7762 10.3195C24.4891 10.2676 22.6215 10.3031 22.6215 10.3031L20.3657 9.93669C20.3657 9.93669 20.6746 8.61599 21.2844 7.93787C21.8942 7.25974 22.8512 6.32732 22.8321 6.20974C22.8129 6.09216 22.0446 6.19607 22.0446 6.19607L19.6684 7.28161L18.0059 9.46912L14.8504 9.87654L11.8125 7.83943C11.8125 7.83943 10.0707 6.43396 9.99144 6.46677C9.5512 6.64724 10.2211 7.31716 10.727 8.12654C11.1645 8.82927 11.2547 9.18201 11.8453 9.67146C12.4223 10.1472 13.3903 10.6203 13.3903 10.6203L12.6957 11.8754C12.6957 11.8754 10.4563 12.7586 10.0653 12.7586C9.67698 12.7613 8.83206 12.4414 8.71448 12.5918Z" fill="#BDCF44"/>
<path d="M15.7254 11.8344C16.6414 11.9027 17.3031 13.1195 18.1289 13.948C19.3348 15.1539 20.2781 15.7828 21.2926 16.0207C21.8012 16.1383 22.9688 16.3324 22.9688 16.3324C22.9688 16.3324 23.1383 16.2148 22.5614 15.8922C21.9844 15.5695 21.6371 14.9515 21.5524 14.6644C21.4676 14.3773 21.2024 13.434 20.6446 12.6519C20.0867 11.8699 19.4524 11.539 19.6547 11.1836C19.8571 10.8281 21.6071 11.4297 23.2914 11.159C25.5145 10.8035 25.8535 10.0898 25.7524 10.0051C25.6512 9.9203 24.2758 10.3277 23.5813 10.1746C22.8867 10.0215 22.2906 9.54569 21.2406 9.54569C20.5242 9.54569 19.8242 9.80545 19.6356 9.41444C19.477 9.08631 20.0731 7.98983 20.527 7.57694C21.6289 6.57616 22.8184 6.33827 22.8184 6.20155C22.8184 5.91991 20.8852 5.76131 19.5453 6.83045C18.211 7.89413 18.4625 9.29139 16.7289 9.29139C16.152 9.29139 15.9305 9.15467 15.9305 9.15467C15.9305 9.15467 15.1567 8.51756 14.1231 7.95702C13.0895 7.39647 12.3102 7.6453 11.7141 7.35819C11.1207 7.07108 10.068 6.32733 9.96682 6.47772C9.86565 6.62811 10.7571 7.6453 11.8781 8.47655C12.9992 9.3078 14.2543 9.73163 13.8961 10.0707C13.5406 10.4098 12.9473 10.6312 12.3867 11.0551C11.8262 11.4789 11.334 12.0887 10.6559 12.3101C9.97776 12.5316 8.86213 12.3758 8.70901 12.5617C8.55588 12.7476 9.89026 13.3902 11.9766 13.0019C14.0574 12.6137 14.0629 11.7113 15.7254 11.8344Z" fill="#94A61D"/>
<path d="M17.8062 1.35081C17.3496 1.32893 16.7727 1.68987 16.7727 1.68987C16.7727 1.68987 15.9359 2.70979 15.6051 5.24182C15.4519 6.41214 15.6187 7.9844 15.5859 8.8512C15.5531 9.71526 15.3644 10.0379 15.4164 10.4809C15.4684 10.9211 15.9305 11.4188 16.9996 11.4078C17.8582 11.3996 18.3012 10.7352 18.2848 10.4973C18.2684 10.2594 17.5328 7.83401 17.7406 5.69573C17.9348 3.70784 18.6594 2.33518 18.6894 2.04807C18.7059 1.89222 18.5008 1.38362 17.8062 1.35081Z" fill="#728035"/>
</svg>
